<?xml version="1.0" encoding="UTF-8"?>
<svg width="2658px" height="421px" viewBox="0 0 2658 421" version="1.1" xmlns="http://www.w3.org/2000/svg" xmlns:xlink="http://www.w3.org/1999/xlink">
    <!-- Generator: Sketch 63.1 (92452) - https://sketch.com -->
    <title>renjana-kata-logo</title>
    <desc>Created with Sketch.</desc>
    <g id="Page-1" stroke="none" stroke-width="1" fill="none" fill-rule="evenodd">
        <g id="renjana-kata-logo" transform="translate(0.000000, -0.001000)" fill="#0A73DB">
            <path d="M280,76.001 C347.798476,76.001 402.88837,130.412909 403.983388,197.950433 L404,200.001 C404,213.808119 392.807119,225.001 379,225.001 L278,225.001 C264.192881,225.001 253,213.808119 253,200.001 C253,186.193881 264.192881,175.001 278,175.001 L349.670325,175.000404 C339.41801,146.433558 312.095145,126.001 280,126.001 C239.130929,126.001 206,159.131929 206,200.001 C206,240.46105 238.471092,273.33707 278.775287,273.99107 L280,274.001 C293.807119,274.001 305,285.193881 305,299.001 C305,312.670048 294.029857,323.776881 280.413421,323.997651 L279.999,324.001 L277.949433,323.984388 C210.411909,322.88937 156,267.799476 156,200.001 C156,131.517691 211.516691,76.001 280,76.001 Z" id="Path"></path>
            <path d="M955,324 C886.516691,324 831,268.483309 831,200 C831,131.516691 886.516691,76 955,76 C1022.79848,76 1077.88837,130.411909 1078.98339,197.949433 L1079,200 L1079,299 C1079,312.669048 1068.02986,323.775881 1054.41342,323.996651 L1054,324 L955,324 Z M955,126 C914.130929,126 881,159.130929 881,200 C881,240.869071 914.130929,274 955,274 C995.869071,274 1029,240.869071 1029,200 C1029,159.130929 995.869071,126 955,126 Z" id="Shape"></path>
            <path d="M626.990086,198.777275 C626.336608,158.472623 593.460381,126.001 553,126.001 C512.131262,126.001 479.000541,159.131387 479,199.999998 L479,299.001 C479,312.808119 467.807119,324.001 454,324.001 C440.192881,324.001 429,312.808119 429,299.001 L429,199.787066 L429,199.787066 L429.016612,197.950433 C430.11163,130.412909 485.201524,76.001 553,76.001 C621.340664,76.001 676.768671,131.286659 677,199.573235 L677,299.001 C677,312.808119 665.807119,324.001 652,324.001 C638.192881,324.001 627,312.808119 627,299.001 L627,200.001 L626.990086,198.777275 Z" id="Path"></path>
            <path d="M126,76.001 C139.807119,76.001 151,87.1938813 151,101.001 C151,114.808119 139.807119,126.001 126,126.001 C125.326267,126.001 124.658758,125.974349 123.998471,125.922044 L123.999,126 L122.776275,126.010914 C82.471623,126.664392 50,159.540619 50,200.001 C50,202.535362 50.1274035,205.039967 50.3761553,207.508761 L50,207.77 L50,299.001 C50,312.808119 38.8071187,324.001 25,324.001 C11.1928813,324.001 0,312.808119 0,299.001 L0,203.001 C0,202.689835 0.00568483842,202.379997 0.0169563217,202.071586 C0.0056603277,201.382683 0,200.692502 0,200.001 C0,131.518025 55.5161497,76.001 123.998998,76.001 L123.998471,76.0799559 C124.658758,76.0276509 125.326267,76.001 126,76.001 Z" id="Path"></path>
            <path d="M1324.99009,198.777275 C1324.33661,158.472623 1291.46038,126.001 1251,126.001 C1210.13126,126.001 1177.00054,159.131387 1177,199.999998 L1177,299.001 C1177,312.808119 1165.80712,324.001 1152,324.001 C1138.19288,324.001 1127,312.808119 1127,299.001 L1127,199.787066 L1127,199.787066 L1127.01661,197.950433 C1128.11163,130.412909 1183.20152,76.001 1251,76.001 C1319.34066,76.001 1374.76867,131.286659 1375,199.573235 L1375,299.001 C1375,312.808119 1363.80712,324.001 1350,324.001 C1336.19288,324.001 1325,312.808119 1325,299.001 L1325,200.001 L1324.99009,198.777275 Z" id="Path"></path>
            <path d="M1547,324 C1478.51669,324 1423,268.483309 1423,200 C1423,131.516691 1478.51669,76 1547,76 C1614.79848,76 1669.88837,130.411909 1670.98339,197.949433 L1671,200 L1671,299 C1671,312.669048 1660.02986,323.775881 1646.41342,323.996651 L1646,324 L1547,324 Z M1547,126 C1506.13093,126 1473,159.130929 1473,200 C1473,240.869071 1506.13093,274 1547,274 C1587.86907,274 1621,240.869071 1621,200 C1621,159.130929 1587.86907,126 1547,126 Z" id="Shape"></path>
            <path d="M1745,0 C1758.80712,0 1770,11.1928813 1770,25 L1770,164.37 L1876.64932,81.0478131 C1887.52948,72.547302 1903.24062,74.476387 1911.74113,85.3565451 C1920.24164,96.2367031 1918.31256,111.94784 1907.4324,120.448351 L1808.509,197.735 L1906.83407,277.356888 C1917.56421,286.045989 1919.21881,301.7884 1910.5297,312.518547 C1901.8406,323.248693 1886.09819,324.903287 1875.36805,316.214186 L1770,230.889 L1770,299 C1770,312.807119 1758.80712,324 1745,324 C1731.19288,324 1720,312.807119 1720,299 L1720,25 C1720,11.1928813 1731.19288,0 1745,0 Z" id="Path"></path>
            <path d="M2270,0 C2283.80712,0 2295,11.1928813 2295,25 L2295,76 L2322.5,76 C2336.30712,76 2347.5,87.1928813 2347.5,101 C2347.5,114.807119 2336.30712,126 2322.5,126 L2295,126 L2295,198 C2295,198.782403 2294.96406,199.556412 2294.89374,200.320465 L2295.00112,200.411769 C2295.21835,240.280494 2326.9639,272.684952 2366.5736,273.960971 L2367.77627,273.990086 L2368.999,274.001 L2368.99947,274.078877 C2369.65943,274.026624 2370.32661,274 2371,274 C2384.80712,274 2396,285.192881 2396,299 C2396,312.807119 2384.80712,324 2371,324 C2370.32627,324 2369.65876,323.973349 2368.99847,323.921044 L2368.999,324 C2300.51615,324 2245,268.482975 2245,200 C2245,199.539593 2245.00251,199.079772 2245.00751,198.620551 C2245.00253,198.414294 2245,198.207442 2245,198 L2245,126 L2216.5,126 C2202.69288,126 2191.5,114.807119 2191.5,101 C2191.5,87.1928813 2202.69288,76 2216.5,76 L2245,76 L2245,25 C2245,11.1928813 2256.19288,0 2270,0 Z" id="Path"></path>
            <path d="M2056,324 C1987.51669,324 1932,268.483309 1932,200 C1932,131.516691 1987.51669,76 2056,76 C2123.79848,76 2178.88837,130.411909 2179.98339,197.949433 L2180,200 L2180,299 C2180,312.669048 2169.02986,323.775881 2155.41342,323.996651 L2155,324 L2056,324 Z M2056,126 C2015.13093,126 1982,159.130929 1982,200 C1982,240.869071 2015.13093,274 2056,274 C2096.86907,274 2130,240.869071 2130,200 C2130,159.130929 2096.86907,126 2056,126 Z" id="Shape"></path>
            <path d="M2534,324 C2465.51669,324 2410,268.483309 2410,200 C2410,131.516691 2465.51669,76 2534,76 C2601.79848,76 2656.88837,130.411909 2657.98339,197.949433 L2658,200 L2658,299 C2658,312.669048 2647.02986,323.775881 2633.41342,323.996651 L2633,324 L2534,324 Z M2534,126 C2493.13093,126 2460,159.130929 2460,200 C2460,240.869071 2493.13093,274 2534,274 C2574.86907,274 2608,240.869071 2608,200 C2608,159.130929 2574.86907,126 2534,126 Z" id="Shape"></path>
            <path d="M750,76.001 C763.807119,76.001 775,87.1938813 775,101.001 L775,299.001 C775,299.567533 774.981155,300.129664 774.944059,300.686802 C772.99689,367.464902 718.250958,421.001 651.001002,421.001 L651.001529,420.922044 C650.341242,420.974349 649.673733,421.001 649,421.001 C635.192881,421.001 624,409.808119 624,396.001 C624,382.193881 635.192881,371.001 649,371.001 C649.673733,371.001 650.341242,371.027651 651.001529,371.079956 L651.001,371.002 L652.223725,370.991086 C692.528377,370.337608 725,337.461381 725,297.001 C725,294.753201 724.899779,292.52881 724.703562,290.332052 L725,290.12 L725,101.001 C725,87.1938813 736.192881,76.001 750,76.001 Z M750,0.000999996041 C763.807119,0.000999996041 775,11.1938813 775,25.001 C775,38.8081187 763.807119,50.001 750,50.001 C736.192881,50.001 725,38.8081187 725,25.001 C725,11.1938813 736.192881,0.000999996041 750,0.000999996041 Z" id="Shape"></path>
        </g>
    </g>
</svg>